<svg data-name="Layer 1" height="731" width="990" xmlns="http://www.w3.org/2000/svg">
    <path
        d="M245.036 298.44c9.398 31.145 39.044 49.746 39.044 49.746s14.41-31.895 5.012-63.039-39.043-49.745-39.043-49.745-14.41 31.894-5.013 63.038z"
        fill="#145374" />
    <path
        d="M257.32 291.334c23.954 22.01 27.807 56.796 27.807 56.796s-34.987-.9-58.942-22.91-27.808-56.795-27.808-56.795 34.987.9 58.942 22.91zm75.617 91.739c-26.075 19.453-33.453 53.665-33.453 53.665s34.896 2.672 60.97-16.78 33.453-53.665 33.453-53.665-34.896-2.672-60.97 16.78zM350.46 641.16s-.23.3-.69.84h-91.29a83.02 83.02 0 0129.82-12.5c31.97-6.04 62.16 11.66 62.16 11.66z"
        fill="#c88d75" />
    <path
        d="M293.96 546.73c-.11.55-.23 1.1-.35 1.65-.11.54-.23 1.08-.35 1.62q-.375 1.74-.78 3.48a261.887 261.887 0 01-38.4 88.52h-3.62c17.91-25.72 31.4-56.07 39.09-89.11.22-.96.44-1.92.65-2.89.29-1.29.56-2.58.83-3.87q.735-3.54 1.38-7.12c9.96-54.87 5.81-117.57-12.63-191.31-.26-1.04-.53-2.09-.79-3.14-.04-.13-.07-.25-.1-.38l2.9-.74c.33 1.29.66 2.58.97 3.87l.18.69c19.13 76.94 22.73 141.99 11.02 198.73zm-60.99-324.853a28.391 28.391 0 01-28.391 28.391 28.391 28.391 0 01-28.391-28.391 28.391 28.391 0 0128.391-28.391 28.391 28.391 0 0128.391 28.391z"
        fill="#c88d75" />
    <path
        d="M745.082 383.292c-8.249 25.21-32.766 39.812-32.766 39.812s-11.144-26.27-2.895-51.48 32.765-39.813 32.765-39.813 11.144 26.27 2.896 51.48z"
        fill="#145374" />
    <path
        d="M735.204 377.267c-19.943 17.489-23.74 45.771-23.74 45.771s28.536-.072 48.479-17.56 23.74-45.772 23.74-45.772-28.537.072-48.48 17.561zm-63.372 73.353c20.887 16.349 26.256 44.375 26.256 44.375s-28.496 1.52-49.383-14.83-26.256-44.375-26.256-44.375 28.496-1.52 49.383 14.83z"
        fill="#c88d75" />
    <path
        d="M721.94 642h-2.72a218.987 218.987 0 01-17.63-51.71c-.29-1.39-.57-2.78-.83-4.19-.09-.446-.172-.892-.25-1.34A261.842 261.842 0 01696.6 550a298.87 298.87 0 01-.315-17.727c.379-33.066 6.015-69.243 16.965-109.293.05-.19.1-.38.16-.57.28-1.04.57-2.08.86-3.13l2.35.66c-.03.1-.05.19-.08.29-.24.86-.48 1.71-.71 2.56-13.05 47.48-18.61 89.45-16.79 127.21a262.525 262.525 0 002.88 28.47c.31 1.96.64 3.91.99 5.85.34 1.85.7 3.697 1.08 5.54A216.086 216.086 0 00721.94 642zm80.715-320.354a23.149 23.149 0 01-23.149 23.149 23.149 23.149 0 01-23.149-23.149 23.149 23.149 0 0123.149-23.149 23.149 23.149 0 0123.149 23.149z"
        fill="#c88d75" />
    <path
        d="M529.7 529.34l-.66 20.66-2.92 92h-84.96l-8.63-92-4.26-45.46-22.54-74.38 146.51-29.3s11.27 42.83 15.77 74.38c4.51 31.56-38.31 54.1-38.31 54.1z"
        fill="#2f2e41" />
    <path
        d="M529.7 529.34l-.66 20.66-2.92 92h-84.96l-8.63-92-4.26-45.46-22.54-74.38 146.51-29.3s11.27 42.83 15.77 74.38c4.51 31.56-38.31 54.1-38.31 54.1z"
        opacity=".2" />
    <path d="M978 642H0V12l158.34 102H157v436h678v-.12L978 642z" fill="#145374" />
    <path d="M12 0l176.971 114H835v416.153L990 630V0H12z" fill="#c88d75" />
    <path
        d="M561.096 24.317c-44.969 0-81.423 40.457-81.423 90.362v63.405h19.5l11.29-23.492-2.822 23.492h125.342l10.263-21.356-2.565 21.356h14.112V128.3c0-57.428-41.95-103.983-93.697-103.983z"
        fill="#2f2e41" />
    <path
        d="M484.618 317.464l-13.524 51.841 126.222-4.508-2.254-42.825s-94.666-24.794-110.444-4.508zM362.903 524.829l40.572 90.159 38.317-47.333-31.555-63.112-47.334 20.286zm234.413-412.477a51.841 51.841 0 01-51.841 51.841 51.841 51.841 0 01-51.841-51.841 51.841 51.841 0 0151.841-51.841 51.841 51.841 0 0151.841 51.841z"
        fill="#ffb9b9" />
    <path
        d="M622.11 179.971l-23.847 19.88-3.2 2.66-2.255 27.048h-87.905s11.992-10.391 23.126-21.143c.226-.248.474-.518.744-.766 1.51-1.465 2.863-2.818 4.08-4.035.653-.676 1.284-1.307 1.848-1.893.924-.97 1.826-1.893 2.727-2.818a.078.078 0 00.023-.045 87.97 87.97 0 006.491-7.618l.023-.023a26.176 26.176 0 001.51-2.231c6.762-11.27-9.016-33.81-9.016-33.81l49.588-24.793c1.735 24.433 22.404 40.751 31.645 46.882 2.705 1.78 4.418 2.705 4.418 2.705z"
        fill="#ffb9b9" />
    <path
        d="M743.825 558.639c-33.81 9.016-36.064-58.603-36.064-58.603l-46.145-92.29a213.423 213.423 0 01-19.88-61.914l-10.61-66.686-3.223 3.854v.023l-5.793 2.885-35.207-56.35-9.872-15.777v-18.032l33.81-15.778h13.523s.293-.045.812-.09c6.22-.654 46.702-3.359 48.776 36.154.816 15.507.745 28.355.323 38.435a297.65 297.65 0 007.861 82.971c2.387 9.79 4.99 18.292 7.593 22.848 9.016 15.778 40.572 139.747 40.572 139.747s47.333 49.587 13.524 58.603zM536.46 204.765l-8.543 15.575-5.05 9.219-24.725 45.08s-7.01 5.724-18.37 13.117c-18.889 12.284-49.858 29.144-80.805 31.962-49.588 4.508-2.254-155.525-2.254-155.525s15.778-63.111 38.317-56.349 4.508 29.302-11.27 72.127-2.254 90.16-2.254 90.16 47.334-29.303 72.128-51.842c12.915-11.744 24.004-14.922 31.645-15.26h.023a28.7 28.7 0 017.55.586 17.053 17.053 0 013.607 1.15z"
        fill="#ffb9b9" />
    <path
        d="M630 280.273l-2.097 2.75-32.84 56.98s-42.826-15.778-74.382-20.285c-30.654-4.373-44.29 18.888-45.057 20.218l8.994-35.996-4.846-16.184c-.564-1.893-1.217-3.99-1.916-6.356-6.762-22.54 18.032-47.333 18.032-47.333l29.391-31.038h.023a28.7 28.7 0 017.55.586 359.488 359.488 0 01-4.079 4.035c-.27.248-.518.518-.744.766-8.632 8.813-4.147 11.27-.112 11.924a19.85 19.85 0 004.034.203c9.4 1.352 29.978-6.897 45.08-13.795 10.278-4.688 18.031-8.745 18.031-8.745l19.678-18.032 2.952-2.705c2.705 1.781 4.418 2.705 4.418 2.705h2.254s.293-.045.812-.09l-10.263 7.616a38.155 38.155 0 00-15.343 33.046z"
        fill="#d0cde1" />
    <path
        d="M507.157 344.511l-32.952 12.868s-178.921-69.217-205.969-12.868S362.903 536.1 362.903 536.1l54.095-24.794-22.54-67.619s130.731 110.445 184.827 49.588 18.031-146.908 18.031-146.908-33.81-26.648-90.159-1.855zM412.49 590.195l-20.285 15.777s18.032 72.128 11.27 83.397-20.286 42.826 4.508 40.572 51.841-40.572 54.095-54.095 18.032-54.096 18.032-54.096 27.047-63.111 6.762-65.365-52.596-3.763-52.596-3.763zM584.243 49.21c-8.175-10.527-20.233-17.195-33.693-17.195h-1.599c-30.821 0-55.807 27.89-55.807 62.294h10.327l1.668-12.695 2.446 12.695h61.252l5.131-10.74-1.283 10.74h12.05q8.435 41.888-24.237 83.775h20.526l10.264-21.48-2.566 21.48h39.13l7.697-49.406c0-37-21.498-68.376-51.306-79.469z"
        fill="#2f2e41" />
    <path d="M188 729h520v2H188z" fill="#145374" />
</svg>