<svg xmlns="http://www.w3.org/2000/svg" xmlns:xlink="http://www.w3.org/1999/xlink" width="970" height="772.66" data-name="Layer 1"><defs><linearGradient id="a" x1="600" x2="600" y1="675.47" y2="149.73" gradientUnits="userSpaceOnUse"><stop stop-color="gray" stop-opacity=".25" offset="0"/><stop stop-color="gray" stop-opacity=".12" offset=".54"/><stop stop-color="gray" stop-opacity=".1" offset="1"/></linearGradient><linearGradient id="c" x1="1186.1" x2="1186.1" y1="-329.85" y2="-425.03" gradientTransform="translate(-521.72 1157.6)" xlink:href="#a"/><linearGradient id="d" x1="1083.1" x2="1083.1" y1="-358.53" y2="-539.81" gradientTransform="rotate(-18.54 4471.6 1799.5)" xlink:href="#a"/><linearGradient id="b" x1="600" x2="600" y1="675.47" y2="149.73" gradientUnits="userSpaceOnUse" xlink:href="#a"/></defs><path transform="translate(-115 -68.145)" d="M1033.8 253.83H900.96V203a53.24 53.24 0 00-53.24-53.24H239.49a48.3 48.3 0 00-48.3 48.3v55.8h-20A56.21 56.21 0 00114.96 310v252a56.2 56.2 0 0052 56v57h56.78v-56.83h71.5v57.31h56.78v-57.31h511v57.31h56.78v-57.31h47.32v56.78h56.84v-56.78h10.23a50.76 50.76 0 0050.77-50.76V305a51.16 51.16 0 00-51.16-51.17zM890.96 476.22v42.58H679.28a27.49 27.49 0 003.49-13.43v-29.15z" fill="url(#b)" opacity=".5"/><path d="M68.12 528.73h54.67v68.34H68.12zm670.25.51h54.67v68.34h-54.67zm100.23-.51h54.67v68.34H838.6zm-646.96.51h54.67v68.34h-54.67z" fill="#145374"/><path d="M68.12 528.73h54.67v68.34H68.12zm670.25.51h54.67v68.34h-54.67zm100.23-.51h54.67v68.34H838.6zm-646.96.51h54.67v68.34h-54.67z" opacity=".3"/><path d="M765.2 191.58h137.54A49.26 49.26 0 01952 240.84v252.69a48.87 48.87 0 01-48.87 48.87H765.2z" fill="#145374"/><path d="M765.2 191.58h137.54A49.26 49.26 0 01952 240.84v252.69a48.87 48.87 0 01-48.87 48.87H765.2z" opacity=".3"/><path d="M137.91 91.345h263.31v314.37H91.4v-267.87a46.51 46.51 0 0146.51-46.5z" fill="#145374"/><path d="M139.41 91.345h261.81v314.37H91.4v-266.37a48 48 0 0148.01-48z" opacity=".3"/><g fill="#145374"><path d="M209.2 91.345h255.3v314.37H154.68v-259.86a54.51 54.51 0 0154.51-54.51z"/><path d="M463 91.345h260.55a51.27 51.27 0 0151.27 51.27v263.1H463zM851.77 191.58h51A49.26 49.26 0 01952 240.84v252.69a48.87 48.87 0 01-48.87 48.87h-51.36zM223.02 446.72h628.74v95.68H223.02z"/></g><path d="M299.64 231.91l64.064-18.673c28.295-8.247 57.714 7.892 65.962 36.188l21.222 72.81c8.247 28.295-7.892 57.714-36.188 65.962l-64.064 18.673c-28.295 8.247-57.714-7.892-65.962-36.188l-21.222-72.81c-8.247-28.295 7.892-57.714 36.188-65.962z" fill="#f55f44"/><path d="M72.13 191.58h201V542.4h-201A54.13 54.13 0 0118 488.28V245.71a54.13 54.13 0 0154.13-54.13z" fill="#145374"/><path d="M72.51 191.58H222.7a50.44 50.44 0 0150.44 50.48v249.9a50.44 50.44 0 01-50.44 50.44H72.51A54.51 54.51 0 0118 487.89V246.06a54.51 54.51 0 0154.51-54.48z" opacity=".3"/><path d="M173.41 191.58h87.79a17 17 0 0117 17V525.4a17 17 0 01-17 17h-87.79z" opacity=".1"/><g fill="#145374"><path d="M168.35 191.58h87.79a17 17 0 0117 17V525.4a17 17 0 01-17 17h-87.79z"/><path d="M250.36 373.83h314.37v86.57H250.36zm314.88.5h314.37v86.57H565.24z"/></g><path d="M276.96 373.83h261.17a26.542 26.542 0 0126.6 26.6v33.37a26.542 26.542 0 01-26.6 26.6H276.96a26.542 26.542 0 01-26.6-26.6v-33.37a26.542 26.542 0 0126.6-26.6zm314.88.5h261.17a26.542 26.542 0 0126.6 26.6v33.37a26.542 26.542 0 01-26.6 26.6H591.84a26.542 26.542 0 01-26.6-26.6v-33.37a26.542 26.542 0 0126.6-26.6z" fill="#fff" opacity=".15"/><path d="M631.51 286.66c6.83-2.59 12.62-7.32 18-12.28 10.64-9.82 20.68-22 21.54-36.47.31-5.28-.64-10.54-1.59-15.75-1.91-10.5-3.86-21.12-8.19-30.88a67.83 67.83 0 00-21.7-27 7.3 7.3 0 00-4.91-1.46c-3 .27-3.76 2.33-4.16 4.3-2.43 12 4.24 23.64 9.12 34.84a127.18 127.18 0 019.62 35.27c.63 5.16.86 10.74-1.86 15.18-1.66 2.72-4.26 4.7-6.8 6.62-3.8 2.87-8 5.88-12.76 5.74s-10.08-4.23-15-2.91-8.53 8.89-8.56 13.74c-.06 13.14 18.11 14.52 27.25 11.06z" fill="#ffd180"/><path d="M538.79 142.04s26.18-5.24 39.27 0c0 0 7.85-18.33 15.71-18.33s10.47 28.8 10.47 28.8l10.47 41.89s49.75 89 0 136.15-128.3-5.24-128.3-39.27 15.71-104.73 15.71-104.73 15.71-57.6 20.95-62.84 15.72 18.33 15.72 18.33z" fill="#ffd180"/><path d="M595.09 187.86a5.24 5.24 0 01-5.24 5.24 5.24 5.24 0 01-5.24-5.24 5.24 5.24 0 015.24-5.24 5.24 5.24 0 015.24 5.24zm-60.22 0a5.24 5.24 0 01-5.24 5.24 5.24 5.24 0 01-5.24-5.24 5.24 5.24 0 015.24-5.24 5.24 5.24 0 015.24 5.24zm34.03 5.24a7.85 5.24 0 01-7.85 5.24 7.85 5.24 0 01-7.85-5.24 7.85 5.24 0 017.85-5.24 7.85 5.24 0 017.85 5.24z" fill="#58555d"/><path d="M605.28 186.53l23.566-5.233.568 2.558-23.566 5.233zm.03 10.46l26.185-5.218.512 2.57-26.185 5.218zm-120.69-21.02l.973-2.433 26.183 10.473-.973 2.433zm-7.52 13.2l.399-2.59 34.039 5.24-.399 2.59z" fill="#ffd180"/><path d="M554.52 226.6a119.78 119.78 0 01-20.45-1.74 113 113 0 01-36.92-13.27l.91-4.23a124.25 124.25 0 0037 13c18.85 3.23 51.27 2.26 84.22-15.92l2.2 4c-23.92 13.22-49.1 18.16-66.96 18.16z" opacity=".1"/><path d="M619.28 203.47c-33 18.18-65.38 19.15-84.22 15.92a124.25 124.25 0 01-37-13l-2.42 3.86a126.27 126.27 0 0038.43 13.61 119.78 119.78 0 0020.46 1.75c17.86 0 43-4.93 67-18.13zm-63.91 21.78a.51.51 0 11.51-.51.51.51 0 01-.51.5z" fill="#f55f44"/><path d="M550.81 232.33a4.56 4.56 0 004.56 4.56 4.56 4.56 0 004.56-4.56 4.56 4.56 0 00-4.56-4.56 4.56 4.56 0 00-4.56 4.56zm4.56-2.28a.76.76 0 11.76-.76.76.76 0 01-.76.76z" fill="#4d8af0"/><path d="M612.57 204.99c-69.69 41-109.85 3-109.85 3z" fill="#ffd180"/><path d="M518.17 498.33l-22.45 42.41 34.92 14.96 22.45-47.39z" fill="#fda57d"/><path d="M530.64 555.7l2.49 10s44.9 32.43 34.92 39.91-104.77-39.91-104.77-39.91l32.43-24.95z" fill="#333"/><path d="M677.69 418.89l33.72 34.14 24.75-28.83-38.48-35.63z" fill="#fda57d"/><path d="M736.16 422.19l10.27.61s44.4-33.11 48.55-21.35-69.49 88-69.49 88l-14.07-38.42z" fill="#333"/><path d="M416.45 168.93l51.82-60a10.9 10.9 0 00-.82-15.11L354.69 8.36 341 29.72l87.39 67.27-37.1 40.68zM266 181.95l-58.67-44a17.83 17.83 0 01-4.39-23.76l87.79-97.69 18 18L248 110.15l35.9 35.9z" fill="#fda57d"/><path d="M550.69 356.2l-53.86 161.57 53.86 17.95 89.75-179.52-71.8-17.95z" fill="#4d8af0"/><path d="M548.19 361.19l-2.69 8.08 56.55-8.08 22.09 27.62 13.81-27.62-71.81-17.95z" opacity=".1"/><path d="M290.61 16.605s23-29.66 40.47-9.7-27.44 22.45-27.44 22.45z" fill="#fda57d"/><path d="M317.32 320.3l17.35 34.71a57.54 57.54 0 0059.61 31.23l210.26-30L676.35 446l53.85-53.85-115.85-99.3a29.22 29.22 0 00-22.64-6.81z" fill="#4d8af0"/><path d="M264.56 126.65s4.73 58.3-13.22 60.3l35.9 18s-2 105.71 35.9 143.61c0 0 69.81-37.9 143.61-35.9s-18-71.81-18-71.81l-12.12-81.72 10-15a75 75 0 01-34.92-22.45c-10 12.47-32.86 29.38-52.69 29.38h-8.58c-29.56 0-61-6-85.91-21.9z" opacity=".1"/><path d="M261.23 121.66s4.77 58.3-13.23 60.29l35.9 18s-2 105.71 35.9 143.61c0 0 69.81-37.9 143.61-35.9s-18-71.81-18-71.81l-12.12-81.72 10-15a75 75 0 01-34.92-22.45c-10 12.47-32.86 29.38-52.69 29.38h-8.58c-29.56 0-61-8.47-85.91-24.4z" fill="#3ad29f"/><path d="M308.52 105.22v20a38.3 38.3 0 0011.22 27.08l42.64 42.64 14.19-28.39a35.6 35.6 0 003.76-15.92v-45.41z" fill="#fda57d"/><path d="M309.07 128.31c0 .74 0 1.47.07 2.21a53.84 53.84 0 0071.74-.06v-22.19h-71.81z" opacity=".1"/><path d="M398.27 87.275a53.85 53.85 0 01-53.85 53.85 53.85 53.85 0 01-53.85-53.85 53.85 53.85 0 0153.85-53.85 53.85 53.85 0 0153.85 53.85z" fill="#fda57d"/><path d="M445.55 235.86s-27.16 13-34.65 25.5" opacity=".1"/><path d="M308.52 69.595h89.76s35.9-35.9 0-53.85a122.89 122.89 0 00-24.36-8.6c-54.59-13.84-106.5 31.31-99.48 87.19 1.66 13.2 6.39 24 16.13 29.11 37.89 19.95 17.95-53.85 17.95-53.85z" fill="#333"/><path d="M550 271.22s18.21 39.59-5.7 43-13-33.16-13-33.16-2.39-10.85-8.21-11.46m48.91.66s-21.65 37.82 1.86 43.3 15.89-31.87 15.89-31.87 3.34-10.59 9.2-10.69" opacity=".1"/><path d="M547.89 270.11s18.21 39.59-5.7 43-13-33.16-13-33.16-2.39-10.88-8.19-11.49m52.69.13s-21.69 37.83 1.86 43.27 15.89-31.87 15.89-31.87 3.34-10.59 9.2-10.69" fill="#ffd180"/><path transform="rotate(-18.54 398.269 1098.528)" d="M711.99 780.16a47.59 47.59 0 01-47.59 47.59 47.59 47.59 0 01-47.59-47.59 47.59 47.59 0 0147.59-47.59 47.59 47.59 0 0147.59 47.59z" fill="url(#c)" opacity=".5"/><path transform="translate(-115 -68.145)" d="M545.81 839.88c-6.4 2.15-14.37.62-17.34-5.52-1.71-3.55-1.3-7.52-.9-11.36.44-4.21.81-7.84-1.56-10.19a10.79 10.79 0 00-4.22-2.21c-2-.67-4.16-1.23-6.22-1.77a61.81 61.81 0 01-10.72-3.52c-6.8-3.19-11.15-8.58-11.63-14.42-.41-5 2-9.56 4.3-13.93s4.62-8.71 3.52-13c-1.49-5.79-8.44-8.54-14.56-11l-1-.38c-7.48-3-15.5-9.33-13.5-17.45.7-2.83 2.49-5 4.22-7a21.26 21.26 0 003-4.29c2.7-5.69-1-12.27-2.65-14.84-1.29-2-2.82-3.84-4.3-5.67a54.82 54.82 0 01-6.13-8.68l-.28-.52c-4.06-7.68-4.14-8-3.8-16.37v-1l3.54.14v1c-.3 7.59-.3 7.59 3.39 14.57l.28.52a51.37 51.37 0 005.75 8.11c1.53 1.89 3.11 3.85 4.5 5.94 4.29 6.49 5.34 13.16 2.89 18.31a24.2 24.2 0 01-3.52 5c-1.54 1.84-3 3.58-3.5 5.62-1.56 6.31 6.41 11.33 11.37 13.31l.95.38c6.57 2.6 14.75 5.84 16.69 13.37 1.44 5.59-1.23 10.63-3.82 15.51-2.17 4.1-4.23 8-3.9 12 .44 5.37 5.25 9.46 9.6 11.51a58.23 58.23 0 0010.11 3.3c2.12.55 4.31 1.13 6.45 1.84a13.86 13.86 0 015.6 3.06c3.57 3.54 3.07 8.39 2.59 13.08-.36 3.5-.71 6.81.57 9.45 2.31 4.78 9.47 5.48 14.45 3.13 4.08-1.92 7.29-5.19 10.69-8.64 1.1-1.12 2.24-2.27 3.4-3.37 6.34-6 12.75-8.62 18.55-7.61a26.17 26.17 0 015.35 1.73 26.43 26.43 0 004.13 1.42 12.73 12.73 0 0014.55-9.32c.13-.59.22-1.21.32-1.86.31-2.08.66-4.44 2.32-6.27s4.29-2.5 6.16-2.93l19.3-4.46.8 3.45-19.3 4.46c-1.83.42-3.42.86-4.33 1.86s-1.18 2.67-1.43 4.41c-.1.68-.21 1.39-.36 2.09a16.27 16.27 0 01-18.78 12 29.47 29.47 0 01-4.69-1.6 23.16 23.16 0 00-4.63-1.52c-5.88-1-11.67 3.07-15.5 6.69-1.11 1.05-2.23 2.19-3.31 3.28-3.47 3.52-7.05 7.17-11.7 9.36a16.63 16.63 0 01-1.76.8z" fill="url(#d)" opacity=".5"/></svg>